<svg id="Layer_4" data-name="Layer 4" xmlns="http://www.w3.org/2000/svg" viewBox="0 0 1080 1080"><defs><style>.cls-1{opacity:0;}</style></defs><title>laviola logo</title><rect class="cls-1" width="1080" height="1080"/><path d="M127.72,977.14l3.13.59-11,35.31H19.21v-3.53h4.91q8.23,0,11.77-5.3,1.95-3.13,2-14.32V906.11q0-12.17-2.55-15.31-3.73-4.11-11.18-4.12H19.21v-3.53H78.07v3.53q-16.68-.18-20.21,7.07-1.56,2.94-1.57,14.52v81.62q0,12,5.11,13.93c1.57.66,6.53,1,14.91,1h9.42q18.83,0,27-5.39T127.72,977.14Z"/><path d="M260,969.48H209.52l-8.82,20.63q-3.18,7.44-3.18,11.17,0,7.05,14.91,8.23V1013H171.62v-3.53q8-1.37,10.59-3.73,4.71-4.5,10.79-18.64l45.72-106.93h3.34l45.12,108.11q4.51,10.8,7.85,14.52,5.3,6.09,14.52,6.67V1013H258.34v-3.53q13.14-.59,13.15-8c0-2.75-1.23-7.14-3.66-13.17Zm-3-7.06-21.76-52.14-22.72,52.14Z"/><path d="M459.74,883.15v3.53q-7.85,1.38-12.36,6.28-3.54,3.93-7.07,12.56L395,1016h-3.53L342.8,904q-3.74-8.62-5.3-10.4-4.71-6.07-15.31-6.87v-3.53h53v3.53q-14.32,1.38-14.32,8.62,0,4.89,4.63,15.07l32.88,76.21,30.51-75.39q4.58-11,4.58-15.29,0-7.06-12.17-9a10.86,10.86,0,0,1-1.57-.2v-3.53Z"/><path d="M558.28,1009.51V1013H502.55v-3.53h4.52q8.23,0,11.77-4.71,2.35-2.94,2.35-14.71v-84a68.38,68.38,0,0,0-.39-9.62,10.27,10.27,0,0,0-5-7.55,17.64,17.64,0,0,0-8.73-2.26h-4.52v-3.53h55.73v3.53h-4.71c-5.37,0-9.22,1.57-11.58,4.71q-2.55,3.15-2.55,14.72v84a68.1,68.1,0,0,0,.39,9.61c.66,3.53,2.32,6,5,7.56a17.55,17.55,0,0,0,8.73,2.25Z"/><path d="M670.69,880.21q26.88,0,44.94,20.21,17.46,19.62,17.46,46.89,0,28.46-17.66,48.08-18.25,20.6-46.3,20.6-28.46,0-46.31-20.21-17.07-19.42-17.07-48.07,0-31,21.19-50.63Q645.18,880.21,670.69,880.21Zm-2,6.87q-22,0-32.57,20.21-8.43,15.69-8.44,40t8.44,40.82q10.59,21,32.77,21,22.76,0,33.55-19.23,8.63-15.3,8.63-40,0-26.08-8.24-42Q692.28,887.08,668.73,887.08Z"/><path d="M888.25,977.14l3.14.59-11,35.31H779.75v-3.53h4.9q8.25,0,11.77-5.3,2-3.13,2-14.32V906.11c0-8.11-.86-13.21-2.55-15.31q-3.74-4.11-11.19-4.12h-4.9v-3.53h58.86v3.53q-16.68-.18-20.21,7.07-1.57,2.94-1.57,14.52v81.62q0,12,5.1,13.93,2.36,1,14.91,1h9.42q18.84,0,27-5.39T888.25,977.14Z"/><path d="M1019.89,969.48H969.43l-8.81,20.63q-3.2,7.44-3.19,11.17,0,7.05,14.91,8.23V1013H931.53v-3.53q8-1.37,10.6-3.73,4.71-4.5,10.79-18.64l45.71-106.93H1002l45.13,108.11q4.5,10.8,7.84,14.52,5.31,6.09,14.53,6.67V1013h-51.21v-3.53q13.14-.59,13.14-8,0-4.12-3.66-13.17Zm-3-7.06-21.76-52.14-22.72,52.14Z"/><path d="M35.3,827s17.59,3,32.54-4.83,14.37-15.44,11.37-17c-4.6-2.33-8.09,2.42-14.95,12C58.06,825.78,47,827.11,35.3,827Z"/><path d="M83.54,786a2.08,2.08,0,0,1-2.89-.24c-2.93-3.37-9.94-10.64-14.52-8.95C60.21,779,76.25,799.55,82,799.08s9.81-10.21,16-11.25,1.79-8.8-4.75-7.08A26.18,26.18,0,0,0,83.54,786Z"/><path d="M45.33,839.72c-13,0-26-6-31.94-19.25-6.22-13.78-2.34-34.35,12.16-41.26,7.59-3.61,17.49-3.22,25.84,1,7,3.53,11.63,9,12.79,15.12,1.12,5.92-.92,13-5.34,18.6-3.85,4.84-8.82,7.62-14,7.82-7.6.31-16.92-5.24-18.66-14-1.35-6.73,1.68-15.51,8.18-17.33,4.21-1.19,8.14.9,10.11,2.25l-1.88,2.73c-1.2-.82-4.31-2.64-7.33-1.79-4.62,1.3-6.89,8.19-5.83,13.49,1.39,6.94,9.12,11.49,15.28,11.28,4.18-.16,8.27-2.49,11.51-6.57,3.78-4.74,5.61-11,4.68-15.91s-5-9.72-11-12.78c-7.46-3.78-16.24-4.15-22.91-1-12.62,6-16,24.77-10.57,36.9,7.71,17.06,28.31,20.72,43.8,14.4,8.62-3.52,13.64-7.9,33.26-26.75,15.85-15.23,28.15-23,37.62-23.66a27,27,0,0,1,19.54,6.19,24,24,0,0,1,8.24,16.83c.78,10.92-4.41,23.39-17.65,25-12.32,1.47-23.06-6.55-25-14.67a16,16,0,0,1,2.58-12.86,17,17,0,0,1,11.6-7.22c8.6-1,15.29,3.51,16.28,11a9.7,9.7,0,0,1-2.23,7.21,8.34,8.34,0,0,1-6.1,3.09c-5.17.25-8.5-2.79-9.2-8.36l3.29-.42c.72,5.72,4.51,5.53,5.74,5.47a5.16,5.16,0,0,0,3.72-1.9,6.46,6.46,0,0,0,1.49-4.66c-.86-6.6-6.95-8.87-12.59-8.18a13.55,13.55,0,0,0-9.27,5.81,12.59,12.59,0,0,0-2.09,10.2c2.13,8.85,13.9,13,21.39,12.14,11.09-1.32,15.41-12,14.74-21.43a20.75,20.75,0,0,0-7.1-14.56,23.61,23.61,0,0,0-17.13-5.39c-8.66.63-20.29,8.07-35.56,22.74-20,19.22-25.15,23.69-34.31,27.43A43,43,0,0,1,45.33,839.72Z"/><path d="M40.28,790.67S52.89,794.33,49.7,801c-2.65,5.49-9.66,3.5-9.71-1.86C39.94,794.18,40.28,790.67,40.28,790.67Z"/><path d="M94.88,820.74s-9,8.09-3.67,12.28c4.39,3.47,9.38-1,7.28-5.43C96.57,823.5,94.88,820.74,94.88,820.74Z"/><path d="M179.24,787.65s-9,6.8-3.69,10.54c4,2.86,8.26-.86,6.41-4.77Z"/><path d="M130.62,814.31s-4.66-8.47.44-10.25c4.24-1.47,6.85,3.21,4.09,6C132.62,812.67,130.62,814.31,130.62,814.31Z"/><path d="M138.56,831.3c-6.49,0-15-3.16-22.67-6a103.85,103.85,0,0,0-11.17-3.71c-8.15-1.87-10.91,6.09-11,6.43L90.56,827c1.29-3.86,6.09-10.63,14.9-8.6A103.21,103.21,0,0,1,117,822.2c8.39,3.1,17.89,6.62,23.69,5.61l.57,3.27A16,16,0,0,1,138.56,831.3Z"/><rect x="281.11" y="804.58" width="259.22" height="3.32"/><rect x="157.21" y="804.58" width="61.39" height="3.32"/><path d="M249.85,826.14l-34.58-19.9,34.58-19.89,34.58,19.89Zm-27.92-19.9,27.92,16.07,27.93-16.07-27.93-16.06Z"/><polygon points="263.51 806.24 249.85 814.1 236.19 806.24 249.85 798.38 263.51 806.24"/><path d="M184,807.5,181.82,805c1.79-1.54,6.47-6.43,6.67-10.5a4.54,4.54,0,0,0-1.34-3.49,4.36,4.36,0,0,0-3.64-1.67c-2.63.3-5.13,3.61-5.88,4.86l-2.85-1.69c.14-.24,3.53-5.91,8.34-6.47a7.55,7.55,0,0,1,6.43,2.68,7.77,7.77,0,0,1,2.25,5.95C191.49,801,184.29,807.24,184,807.5Z"/><path d="M179.24,824.84s-9-6.8-3.69-10.55c4-2.86,8.26.86,6.41,4.78C180.26,822.66,179.24,824.84,179.24,824.84Z"/><path d="M183.91,826.5a7.13,7.13,0,0,1-.79,0c-4.81-.56-8.2-6.22-8.34-6.47l2.85-1.68c.75,1.25,3.25,4.55,5.88,4.86a4.35,4.35,0,0,0,3.64-1.68,4.48,4.48,0,0,0,1.33-3.49c-.19-4.08-4.87-9-6.66-10.49L184,805c.31.27,7.51,6.52,7.82,12.84a8.51,8.51,0,0,1-7.89,8.68Z"/><path d="M1044.64,827s-17.59,3-32.54-4.83-14.37-15.44-11.37-17c4.6-2.33,8.09,2.42,14.95,12C1021.88,825.78,1033,827.11,1044.64,827Z"/><path d="M996.4,786a2.07,2.07,0,0,0,2.89-.24c2.93-3.37,9.94-10.64,14.52-8.95,5.92,2.17-10.12,22.73-15.88,22.26s-9.81-10.21-16-11.25-1.79-8.8,4.75-7.08A26.18,26.18,0,0,1,996.4,786Z"/><path d="M1034.61,839.72a43,43,0,0,1-16.13-3.14c-9.16-3.74-14.31-8.21-34.31-27.43-15.27-14.67-26.9-22.11-35.56-22.74a23.7,23.7,0,0,0-17.13,5.39,20.75,20.75,0,0,0-7.1,14.56c-.67,9.4,3.65,20.11,14.74,21.43,7.49.9,19.26-3.29,21.39-12.14a12.59,12.59,0,0,0-2.09-10.2,13.55,13.55,0,0,0-9.27-5.81c-5.64-.69-11.73,1.58-12.59,8.18a6.46,6.46,0,0,0,1.49,4.66,5.16,5.16,0,0,0,3.72,1.9c1.25.06,5,.25,5.74-5.47l3.29.42c-.7,5.57-4.08,8.6-9.2,8.36a8.33,8.33,0,0,1-6.1-3.09,9.72,9.72,0,0,1-2.23-7.21c1-7.54,7.67-12.09,16.28-11a17,17,0,0,1,11.6,7.22,16,16,0,0,1,2.58,12.86c-2,8.11-12.67,16.14-25,14.67-13.25-1.58-18.44-14.05-17.66-25a24,24,0,0,1,8.24-16.83,26.91,26.91,0,0,1,19.54-6.19c9.47.69,21.77,8.43,37.62,23.66,19.62,18.85,24.64,23.23,33.26,26.75,15.49,6.32,36.1,2.67,43.8-14.4,5.47-12.13,2-30.9-10.57-36.91-6.68-3.17-15.45-2.8-22.92,1-6,3.06-10,7.72-11,12.78s.89,11.17,4.67,15.91c3.24,4.08,7.33,6.41,11.51,6.57,6.14.2,13.89-4.34,15.28-11.28,1.06-5.3-1.21-12.19-5.83-13.49-3-.85-6.13,1-7.33,1.8l-1.88-2.74c2-1.35,5.9-3.44,10.11-2.25,6.5,1.82,9.53,10.6,8.18,17.33-1.74,8.71-11,14.24-18.66,14-5.16-.2-10.13-3-14-7.82-4.42-5.56-6.47-12.68-5.34-18.6,1.15-6.07,5.81-11.59,12.78-15.12,8.35-4.23,18.25-4.62,25.84-1,14.5,6.91,18.38,27.48,12.16,41.26C1060.57,833.73,1047.64,839.72,1034.61,839.72Z"/><path d="M1039.66,790.67s-12.61,3.66-9.42,10.28c2.65,5.49,9.66,3.5,9.71-1.86C1040,794.18,1039.66,790.67,1039.66,790.67Z"/><path d="M985.06,820.74s9,8.09,3.67,12.28c-4.39,3.47-9.38-1-7.28-5.43C983.37,823.5,985.06,820.74,985.06,820.74Z"/><path d="M900.7,787.65s8.95,6.8,3.69,10.54c-4,2.86-8.26-.86-6.41-4.77Z"/><path d="M949.32,814.31s4.66-8.47-.44-10.25c-4.24-1.47-6.85,3.21-4.09,6C947.32,812.67,949.32,814.31,949.32,814.31Z"/><path d="M941.38,831.3a16,16,0,0,1-2.74-.22l.57-3.27c5.79,1,15.3-2.51,23.69-5.61a103.21,103.21,0,0,1,11.58-3.83c8.83-2,13.61,4.74,14.9,8.6L986.24,828l1.57-.53-1.57.54c-.12-.35-2.94-8.29-11-6.44a103.05,103.05,0,0,0-11.16,3.71C956.41,828.14,947.87,831.29,941.38,831.3Z"/><rect x="539.62" y="804.58" width="259.22" height="3.32"/><rect x="861.34" y="804.58" width="61.39" height="3.32"/><path d="M830.09,826.14l-34.58-19.9,34.58-19.89,34.58,19.89Zm-27.93-19.9,27.93,16.07L858,806.24l-27.93-16.06Z"/><polygon points="816.42 806.24 830.09 814.1 843.75 806.24 830.09 798.38 816.42 806.24"/><path d="M896,807.5c-.31-.26-7.51-6.52-7.82-12.84a7.77,7.77,0,0,1,2.25-5.95,7.55,7.55,0,0,1,6.43-2.68c4.81.56,8.2,6.23,8.34,6.47l-2.85,1.69c-.75-1.25-3.25-4.56-5.88-4.86a4.37,4.37,0,0,0-3.64,1.67,4.49,4.49,0,0,0-1.33,3.49c.19,4.07,4.87,9,6.66,10.5Z"/><path d="M900.7,824.84s8.95-6.8,3.69-10.55c-4-2.86-8.26.86-6.41,4.78C899.68,822.66,900.7,824.84,900.7,824.84Z"/><path d="M896,826.5a8.51,8.51,0,0,1-7.89-8.68c.31-6.32,7.51-12.57,7.82-12.84l2.16,2.52c-1.79,1.54-6.47,6.43-6.66,10.49a4.48,4.48,0,0,0,1.33,3.49,4.3,4.3,0,0,0,3.65,1.67c2.64-.3,5.13-3.6,5.86-4.85l2.86,1.68c-.14.25-3.53,5.91-8.34,6.47A7.13,7.13,0,0,1,896,826.5Z"/><path d="M559,133.86c-5.36,7-16,24.44-15.89,51.08.16,29.83,0,31.36,0,31.36h-5.61s-.17-1.53,0-31.36c.15-26.64-10.53-44-15.89-51.08a4.19,4.19,0,0,1,1-6C538.33,117,537.52,102,537.52,102V73c0-6.6.45-9,2.8-9s2.81,2.15,2.81,9v29s-.82,15,14.91,25.86A4.2,4.2,0,0,1,559,133.86Z"/><path d="M543.13,216.3s6.57-66.61,44.8-71.68c0,0,4.44,17.75,25.13,25.35,0,0-32.31-3.59-45.62,4.86S548.86,203.7,548,216.3Z"/><path d="M537.52,216.3s-6.58-66.61-44.8-71.68c0,0-4.44,17.75-25.14,25.35,0,0,32.32-3.59,45.62,4.86s18.59,28.87,19.43,41.47Z"/><path d="M540.32,216.3h32V198.57s-2.57,8.17-10.56,8.17c-5.55,0-21.45.17-21.45.17Z"/><path d="M540.32,216.3h-32V198.57s2.56,8.17,10.56,8.17c5.55,0,21.44.17,21.44.17Z"/><path d="M719.21,262.83a28,28,0,0,1-21.31-9.19c-5.62-6.4-7.31-14.82-4.78-23.69,1.75-6.12,5-10.43,9.54-12.79,7.6-3.93,16.12-1,16.48-.88l-1.1,3.13c-.08,0-7.57-2.57-13.88.7-3.72,1.94-6.36,5.55-7.85,10.75-2.21,7.75-.76,15.07,4.08,20.6,5.43,6.18,14.1,9.07,23.18,7.73,9.36-1.38,17.9-8.54,21.24-17.8,3.78-10.48.57-22.14-9-32.85-10.49-11.69-24.62-16.12-39.79-12.47-17.43,4.19-32.62,18.48-36.94,34.76l-3.21-.85c4.62-17.4,20.81-32.68,39.37-37.14,16.41-4,31.7.84,43,13.48,14.11,15.74,12.12,29.43,9.68,36.19-3.74,10.39-13.34,18.41-23.87,20A32,32,0,0,1,719.21,262.83Z"/><path d="M712,215.31s-7.71,21.08,7.8,21.51S729.59,214.48,712,215.31Z"/><path d="M618,225.29c-.05.21-.12.45-.19.66a5,5,0,0,1-.21.58,4.43,4.43,0,0,1-.3.67,3.78,3.78,0,0,1-.25.49,3.54,3.54,0,0,1-.4.65q-8.31-2.61-16.87-4.64a10.88,10.88,0,0,1,.72-3.24,15.29,15.29,0,0,1,11.66-9.57l.53-.12c.25-.05.51-.08.8-.11a4,4,0,0,1,.53-.07h.11l.75-.05c.55,0,1.11,0,1.69,0a35.06,35.06,0,0,1,1,3.4C618.23,217,618.94,221.51,618,225.29Z"/><path d="M632.56,224.48a21.57,21.57,0,0,1-1,5.54,18.67,18.67,0,0,1-1.21,3.07l-3.14-1.17a16.17,16.17,0,0,0,1.23-3.06,19.15,19.15,0,0,0,.82-4.58,8.26,8.26,0,0,0-4.22-8,18.12,18.12,0,0,0-7.51-2.36,11.35,11.35,0,0,0-5,.32l-1.68-2.86a5.4,5.4,0,0,1,1.28-.51l.53-.12c.25-.05.51-.08.8-.11a4,4,0,0,1,.53-.07h.11l.75-.05c.55,0,1.11,0,1.69,0a22.19,22.19,0,0,1,10.24,2.92A11.49,11.49,0,0,1,632.56,224.48Z"/><path d="M659,219.65l-3.1,1.16-.1-.25c-1.15-2.85-11.48-26.1-41.38-25.73-16.93.22-24.75,9.84-26.41,18.76a21.94,21.94,0,0,0-.35,4.15,18.1,18.1,0,0,0,.32,3.43c-1.14-.21-2.29-.43-3.45-.63a20.18,20.18,0,0,1-.18-3.4,22.69,22.69,0,0,1,.39-4.16c2.92-15.6,17.79-21.32,29.63-21.47h.75c23.23,0,35.45,13.8,40.68,22.08A37.19,37.19,0,0,1,659,219.65Z"/><path d="M659.11,188.62v57.44l-3.32-1.73V188.62Z"/><polygon points="657.44 201.25 640.74 185.57 657.44 162.21 675.03 186.34 657.44 201.25"/><path d="M361.91,262.83a32,32,0,0,1-4.85-.36c-10.53-1.55-20.13-9.57-23.87-20-2.45-6.76-4.43-20.45,9.68-36.19,11.34-12.64,26.63-17.42,43-13.48,18.56,4.46,34.75,19.74,39.37,37.14l-3.21.85c-4.32-16.28-19.51-30.57-36.94-34.76-15.17-3.65-29.3.78-39.79,12.47-9.61,10.71-12.81,22.37-9,32.85,3.34,9.26,11.88,16.42,21.24,17.8,9.09,1.35,17.75-1.55,23.18-7.73,4.84-5.53,6.29-12.85,4.08-20.6-1.49-5.21-4.14-8.83-7.88-10.76-6.34-3.27-13.77-.72-13.85-.69l-1.1-3.13c.36-.13,8.88-3.05,16.48.87,4.58,2.37,7.79,6.68,9.54,12.8,2.53,8.87.84,17.29-4.78,23.69A28,28,0,0,1,361.91,262.83Z"/><path d="M369.16,215.31s7.71,21.08-7.8,21.51S351.53,214.48,369.16,215.31Z"/><path d="M481.4,223.58q-8.61,2-17,4.64a3.92,3.92,0,0,1-.32-.53,8.11,8.11,0,0,1-.41-.84l-.14-.3-.2-.58c-.08-.27-.16-.53-.23-.81-.94-3.75-.25-8.22.47-11.22a33.64,33.64,0,0,1,1-3.4c.6,0,1.16,0,1.69,0l.87.05a4.51,4.51,0,0,1,.53.07c.28,0,.54.06.79.11a15.52,15.52,0,0,1,12.18,9.57A12.44,12.44,0,0,1,481.4,223.58Z"/><path d="M470.28,211.4l-1.67,2.86a11.39,11.39,0,0,0-5-.32,18,18,0,0,0-7.5,2.36,8.21,8.21,0,0,0-4.23,8,19.18,19.18,0,0,0,.76,4.43,17,17,0,0,0,1.21,3.08c-1,.37-2.09.76-3.13,1.15a17,17,0,0,1-1.18-3.07,23,23,0,0,1-1-5.39,11.51,11.51,0,0,1,5.81-11,22.18,22.18,0,0,1,10.23-2.92c.6,0,1.16,0,1.69,0l.87.05a4.51,4.51,0,0,1,.53.07c.28,0,.54.06.79.11A6,6,0,0,1,470.28,211.4Z"/><path d="M496.78,217.06a21.34,21.34,0,0,1-.17,3.4c-1.16.2-2.31.4-3.45.63a19.89,19.89,0,0,0,.31-3.43,21.85,21.85,0,0,0-.36-4.07c-1.66-8.92-9.47-18.54-26.39-18.76H466c-29,0-39.5,22.88-40.68,25.7a2.87,2.87,0,0,0-.12.28l-3.1-1.16a36.48,36.48,0,0,1,3.22-6.09c5.31-8.38,17.73-22.36,41.41-22.05,11.84.15,26.71,5.87,29.63,21.47A24.94,24.94,0,0,1,496.78,217.06Z"/><path d="M425.34,188.62V244.1c-1.11.57-2.22,1.13-3.32,1.71V188.62Z"/><polygon points="423.68 201.25 440.38 185.57 423.68 162.21 406.09 186.34 423.68 201.25"/><path d="M558,812.93c-15.73,10.9-14.91,25.87-14.91,25.87v29c0,6.84-.45,9-2.81,9s-2.8-2.39-2.8-9v-29s.81-15-14.91-25.87a4.19,4.19,0,0,1-1-6c5.36-7.05,16-24.43,15.89-51.08,0-10.33-.08-17.27-.07-21.93v-3.25c0-1.39,0-2.47,0-3.32.95,0,1.91,0,2.85,0s1.9,0,2.84,0c0,.85,0,1.93,0,3.32,0,.93,0,2,0,3.23,0,4.65,0,11.6-.06,22-.15,26.65,10.53,44,15.89,51.08A4.2,4.2,0,0,1,558,812.93Z"/><path d="M613.07,770.84c-20.7,7.6-25.13,25.34-25.13,25.34-29.23-3.87-40-43.68-43.39-62.25-.21-1.18-.41-2.27-.56-3.25-.22-1.29-.38-2.41-.5-3.32,1.6,0,3.19-.05,4.78-.1.1,1.06.25,2.16.43,3.3s.37,2.26.6,3.42c2.34,11.7,7.83,25.45,18.15,32C580.75,774.43,613.07,770.84,613.07,770.84Z"/><path d="M537.16,727.36c-.12.91-.29,2-.5,3.32-.15,1-.35,2.09-.57,3.27-3.43,18.56-14.16,58.36-43.38,62.23,0,0-4.43-17.74-25.13-25.34,0,0,32.31,3.59,45.62-4.86,10.32-6.55,15.81-20.3,18.15-32,.23-1.16.43-2.31.6-3.42s.33-2.24.43-3.3C534,727.31,535.56,727.34,537.16,727.36Z"/><path d="M572.33,725.37v16.87s-2.56-8.18-10.56-8.18c-2.7,0-7.89,0-12.47-.08l-4.75-.05c-.48,0-.94,0-1.36,0h-2.87v-6.52c.95,0,1.9,0,2.84,0h.33c1.6,0,3.19-.05,4.78-.1Q560.43,726.89,572.33,725.37Z"/><path d="M540.32,727.38v6.52l-2.87,0c-.41,0-.88,0-1.36,0l-4.74,0c-4.58,0-9.77.08-12.48.08-8,0-10.55,8.18-10.55,8.18V725.37q11.88,1.51,24.06,1.89c1.59,0,3.18.08,4.78.1h.31C538.42,727.38,539.38,727.38,540.32,727.38Z"/><path d="M706.25,749.31a46.74,46.74,0,0,1-11-1.35c-18.56-4.46-34.75-19.73-39.37-37.14l3.21-.85c4.32,16.28,19.51,30.58,36.94,34.77,15.16,3.64,29.3-.78,39.79-12.48,9.61-10.7,12.81-22.37,9-32.84-3.34-9.27-11.88-16.43-21.24-17.81-9.09-1.34-17.75,1.55-23.18,7.74-4.84,5.53-6.29,12.84-4.08,20.59,1.49,5.2,4.13,8.82,7.85,10.75,6.32,3.28,13.8.73,13.88.71l1.1,3.13c-.36.12-8.88,3.05-16.48-.88-4.58-2.37-7.79-6.67-9.54-12.8-2.53-8.87-.84-17.28,4.78-23.69,6.16-7,15.94-10.34,26.16-8.83,10.53,1.56,20.12,9.58,23.87,20,2.44,6.76,4.43,20.46-9.68,36.19C729.5,744.23,718.4,749.31,706.25,749.31Z"/><path d="M712,725.5s-7.71-21.08,7.8-21.52S729.59,726.33,712,725.5Z"/><path d="M618.43,718.65a31,31,0,0,1-.91,8.21,35.06,35.06,0,0,1-1,3.4c-.6,0-1.14,0-1.69,0a9.92,9.92,0,0,1-1.39-.11c-.29,0-.55-.07-.8-.12a15.69,15.69,0,0,1-10.7-6.75,13,13,0,0,1-1.54-3q8.88-2.13,17.5-4.91c.06.27.13.53.2.82s.08.39.11.59a.85.85,0,0,1,0,.22c0,.22.06.41.08.63S618.41,718.29,618.43,718.65Z"/><path d="M632.56,716.33a11.5,11.5,0,0,1-5.8,11,22,22,0,0,1-10.24,2.92c-.6,0-1.14,0-1.69,0a9.92,9.92,0,0,1-1.39-.11c-.29,0-.55-.07-.8-.12a5.76,5.76,0,0,1-1.81-.63l1.68-2.85a11.24,11.24,0,0,0,5,.31,18.08,18.08,0,0,0,7.49-2.35,8.26,8.26,0,0,0,4.24-8c0-.53-.09-1-.15-1.54a18.86,18.86,0,0,0-.72-3.26l3.1-1.17a19.31,19.31,0,0,1,.8,3.23C632.41,714.62,632.51,715.47,632.56,716.33Z"/><path d="M659,721.16a37.37,37.37,0,0,1-3.2,6.05c-5.23,8.28-17.45,22.08-40.68,22.08h-.75c-11.84-.15-26.71-5.87-29.63-21.46-.05-.32-.11-.62-.14-.93a25,25,0,0,1-.27-3.32q1.66-.27,3.33-.6a20.21,20.21,0,0,0,.22,3.32c0,.31.08.61.13.91,1.66,8.93,9.48,18.55,26.41,18.77,29.67.36,40.27-23.06,41.38-25.74a1.27,1.27,0,0,0,.1-.24Z"/><path d="M659.11,698v54.15h-3.32V699.76Z"/><polygon points="657.44 739.55 640.74 755.23 657.44 778.6 675.03 754.47 657.44 739.55"/><path d="M374.87,749.31c-12.15,0-23.25-5.08-32-14.83-14.11-15.73-12.13-29.43-9.68-36.19,3.75-10.38,13.34-18.4,23.87-20,10.22-1.51,20,1.79,26.16,8.83,5.62,6.41,7.31,14.82,4.78,23.69-1.75,6.13-5,10.43-9.54,12.8-7.6,3.92-16.12,1-16.48.88l1.1-3.13c.08,0,7.57,2.57,13.88-.71,3.72-1.93,6.36-5.55,7.85-10.75,2.21-7.75.76-15.06-4.08-20.59-5.42-6.19-14.09-9.08-23.18-7.74-9.36,1.38-17.9,8.54-21.24,17.81-3.78,10.47-.58,22.14,9,32.84,10.49,11.7,24.62,16.13,39.79,12.48,17.43-4.19,32.62-18.49,36.94-34.77l3.21.85c-4.62,17.41-20.81,32.68-39.37,37.14A46.74,46.74,0,0,1,374.87,749.31Z"/><path d="M369.16,725.5s7.71-21.08-7.8-21.52S351.53,726.33,369.16,725.5Z"/><path d="M480.68,720.34a13.47,13.47,0,0,1-1.56,3A15.67,15.67,0,0,1,468.47,730c-.25.05-.51.09-.79.12a10.07,10.07,0,0,1-1.4.11c-.53,0-1.09,0-1.69,0a33.64,33.64,0,0,1-1-3.4,31.19,31.19,0,0,1-.92-8.08,5.27,5.27,0,0,1,0-.56l0-.5c0-.33.08-.66.13-1a1.1,1.1,0,0,0,0-.16c.07-.38.15-.75.25-1.11Q471.79,718.2,480.68,720.34Z"/><path d="M470.28,729.4a5.76,5.76,0,0,1-1.81.63c-.25.05-.51.09-.79.12a10.07,10.07,0,0,1-1.4.11c-.53,0-1.09,0-1.69,0a21.94,21.94,0,0,1-10.23-2.92,11.51,11.51,0,0,1-5.81-11,22.31,22.31,0,0,1,.26-2.37,21.9,21.9,0,0,1,.78-3.24l3.11,1.18a16.32,16.32,0,0,0-.7,3.25c-.07.45-.1.91-.13,1.38a8.23,8.23,0,0,0,4.23,8,18.17,18.17,0,0,0,7.5,2.35,11.28,11.28,0,0,0,5-.31Z"/><path d="M496.78,723.66a20.74,20.74,0,0,1-.27,3.32c0,.28-.08.56-.13.85-2.92,15.59-17.79,21.31-29.63,21.46H466c-23.21,0-35.42-13.77-40.66-22a38.36,38.36,0,0,1-3.22-6.09l3.1-1.16a2.62,2.62,0,0,0,.12.29C426.6,723.35,436.8,746,466,746h.73c16.92-.22,24.73-9.84,26.39-18.77.05-.26.1-.55.13-.83a20.21,20.21,0,0,0,.22-3.32C494.55,723.28,495.66,723.48,496.78,723.66Z"/><path d="M425.34,700v52.19H422v-53.9C423.12,698.86,424.23,699.42,425.34,700Z"/><polygon points="423.68 739.55 440.38 755.23 423.68 778.6 406.09 754.47 423.68 739.55"/><path d="M946.11,470.29c0,2.35-2.14,2.8-9,2.8h-29s-15-.81-25.86,14.91a4.19,4.19,0,0,1-6,1c-7-5.36-24.44-16-51.08-15.89-10.34.05-17.29.08-21.93.07-1.73,0-3.12,0-4.28,0-1.5,0-2.56,0-3.32,0V472c0-.58,0-1.17,0-1.75,0-1,0-1.89,0-2.84.74,0,1.81,0,3.32,0h4.33c4.64,0,11.59,0,21.93.06,26.64.15,44-10.53,51.08-15.89a4.2,4.2,0,0,1,6,1c10.9,15.73,25.86,14.91,25.86,14.91h29C943.72,467.48,946.11,467.93,946.11,470.29Z"/><path d="M865.5,517.88s-17.75,4.45-25.35,25.14c0,0,3.6-32.32-4.86-45.63-6.54-10.3-20.27-15.79-32-18.13-1.51-.31-3-.56-4.42-.76-1.13-.17-2.24-.28-3.3-.38,0-1.61,0-3.21.07-4.81.84.11,2,.26,3.3.48s2.69.43,4.3.73C821.8,478,861.62,488.67,865.5,517.88Z"/><path d="M865.5,422.67c-3.88,29.22-43.7,39.95-62.24,43.39-1.63.29-3.07.54-4.33.73s-2.48.38-3.32.48c0-1.61-.07-3.22-.14-4.83,1.07-.08,2.18-.22,3.32-.37,1.46-.21,3-.46,4.52-.78,11.71-2.33,25.44-7.83,32-18.13,8.46-13.3,4.86-45.62,4.86-45.62C847.75,418.24,865.5,422.67,865.5,422.67Z"/><path d="M811.55,502.29H793.87c.94-8,1.52-16,1.72-24.17,0-1.61,0-3.21.07-4.81V472c0-.58,0-1.17,0-1.75h7.58s0,1.12,0,2.87v1.36c0,1.39,0,3,0,4.74,0,4.58.08,9.76.08,12.46C803.39,499.72,811.55,502.29,811.55,502.29Z"/><path d="M811.55,438.27s-8.16,2.57-8.16,10.57c0,2.7,0,7.88-.08,12.45,0,1.73,0,3.37,0,4.77v1.36c0,1.74,0,2.87,0,2.87h-7.58c0-1,0-1.89,0-2.84v-.18c0-1.61-.07-3.22-.14-4.83q-.39-10.57-1.64-20.94v-3.23Z"/><path d="M777.62,679.62a29.42,29.42,0,0,1-10-1.73c-10.38-3.75-18.41-13.34-20-23.88-1.51-10.21,1.79-20,8.83-26.16,6.41-5.61,14.82-7.31,23.69-4.77,6.13,1.75,10.43,5,12.8,9.54,3.92,7.6,1,16.12.87,16.47L790.71,648c0-.08,2.57-7.57-.7-13.88-1.94-3.73-5.55-6.37-10.75-7.85-7.75-2.22-15.06-.77-20.59,4.08-6.19,5.42-9.08,14.09-7.74,23.18,1.38,9.36,8.54,17.89,17.81,21.24,10.47,3.79,22.14.57,32.84-9,11.69-10.49,16.12-24.63,12.48-39.8-4.19-17.43-18.49-32.62-34.77-36.94l.85-3.2c17.41,4.61,32.68,20.8,37.14,39.37,4,16.41-.84,31.7-13.48,43C793.84,677.14,784.7,679.62,777.62,679.62Z"/><path d="M794.81,641.92s-21.08-7.71-21.51,7.8S795.65,659.55,794.81,641.92Z"/><path d="M799.61,545.55a3.86,3.86,0,0,1,0,.47v.46h0a32.6,32.6,0,0,1-3.4,1,29.52,29.52,0,0,1-8.67.88l-.45-.05c-.3,0-.6-.07-.88-.12h-.1a3.89,3.89,0,0,1-.47-.09,4.31,4.31,0,0,1-.49-.11,2.42,2.42,0,0,1-.45-.1l-.45-.14q2.68-8.65,4.76-17.58a12.27,12.27,0,0,1,3.09,1.38,15.68,15.68,0,0,1,7.3,11.06c0,.25.08.52.11.8a4.25,4.25,0,0,1,.07.53C799.57,544.43,799.61,545,799.61,545.55Z"/><path d="M799.61,545.55a3.86,3.86,0,0,1,0,.47v.15a1.62,1.62,0,0,1,0,.31,22,22,0,0,1-2.92,10.24,11.49,11.49,0,0,1-11,5.81,23.76,23.76,0,0,1-6.09-1.18l1.14-3.14a16.31,16.31,0,0,0,3.24.78,15,15,0,0,0,1.92.22,8.29,8.29,0,0,0,8-4.23,18.39,18.39,0,0,0,2.34-7.5,11.28,11.28,0,0,0-.31-5l2.87-1.68a6,6,0,0,1,.63,1.81c0,.25.08.52.11.8a4.25,4.25,0,0,1,.07.53C799.57,544.43,799.61,545,799.61,545.55Z"/><path d="M818.6,544.33c.3,23.69-13.67,36.11-22,41.4a36.89,36.89,0,0,1-6.09,3.22l-1.16-3.1.3-.12c3.07-1.26,26-11.61,25.66-41.37-.21-16.92-9.82-24.74-18.74-26.39-.53-.1-1.07-.19-1.61-.24a19.69,19.69,0,0,0-3.35-.1c.2-1.11.39-2.22.58-3.33a23.33,23.33,0,0,1,3.33.15c.55.06,1.11.15,1.66.25C812.74,517.62,818.45,532.48,818.6,544.33Z"/><path d="M821.5,585.73v3.32H767.24c.56-1.09,1.13-2.2,1.67-3.32Z"/><polygon points="808.87 587.4 824.55 570.7 847.92 587.4 823.79 604.99 808.87 587.4"/><path d="M780.14,355.24l-.85-3.21c16.28-4.32,30.58-19.51,34.77-36.94,3.64-15.17-.79-29.3-12.48-39.79-10.7-9.61-22.37-12.82-32.84-9-9.27,3.35-16.43,11.89-17.81,21.25-1.34,9.09,1.55,17.75,7.74,23.17,5.53,4.85,12.84,6.3,20.59,4.09,5.21-1.49,8.83-4.14,10.76-7.88,3.28-6.34.72-13.77.69-13.85l3.13-1.1c.13.36,3,8.87-.87,16.47-2.37,4.59-6.67,7.8-12.8,9.55-8.87,2.53-17.28.83-23.69-4.78-7-6.17-10.34-15.95-8.83-26.16,1.55-10.53,9.58-20.13,20-23.88,6.77-2.44,20.46-4.42,36.19,9.69,12.64,11.34,17.43,26.62,13.48,43C812.82,334.43,797.55,350.62,780.14,355.24Z"/><path d="M794.81,299.12s-21.08,7.71-21.51-7.81S795.65,281.49,794.81,299.12Z"/><path d="M799.61,395.48c0,.38,0,.77,0,1.13a8,8,0,0,1-.1,1c0,.28-.08.55-.11.8a15.58,15.58,0,0,1-8,11.43,13.16,13.16,0,0,1-3.12,1.21c-1.44-5.91-3.1-11.73-4.94-17.46a.29.29,0,0,1,.1,0,4.73,4.73,0,0,1,.66-.25l.38-.11a1.13,1.13,0,0,1,.37-.1,1,1,0,0,1,.25-.07,5.47,5.47,0,0,1,.61-.13,5.77,5.77,0,0,1,.83-.15,28.11,28.11,0,0,1,9.62.78,34,34,0,0,1,3.4,1h0V395A3.62,3.62,0,0,1,799.61,395.48Z"/><path d="M799.61,395.48c0,.38,0,.77,0,1.13a8,8,0,0,1-.1,1c0,.28-.08.55-.11.8a6,6,0,0,1-.63,1.8l-2.87-1.67a11.28,11.28,0,0,0,.31-5,18.39,18.39,0,0,0-2.34-7.5,8.24,8.24,0,0,0-8-4.23,21.48,21.48,0,0,0-3,.4,17.91,17.91,0,0,0-3.17.94c-.39-1-.79-2.09-1.19-3.12a20.89,20.89,0,0,1,3.17-1,22.92,22.92,0,0,1,3.95-.57,11.51,11.51,0,0,1,11,5.81,21.94,21.94,0,0,1,2.92,10.23,1.72,1.72,0,0,1,0,.32V395A3.62,3.62,0,0,1,799.61,395.48Z"/><path d="M818.6,396.71c-.15,11.85-5.86,26.71-21.45,29.63-.73.13-1.46.23-2.17.3a23.57,23.57,0,0,1-2.36.11h-1c-.2-1.13-.4-2.26-.63-3.37a20.93,20.93,0,0,0,3.36,0,20,20,0,0,0,2.18-.28c8.92-1.66,18.53-9.47,18.74-26.41.38-29.63-23-40.26-25.71-41.37l-.25-.1,1.16-3.11a38.36,38.36,0,0,1,6.06,3.21C804.9,360.56,818.9,373,818.6,396.71Z"/><path d="M821.5,352v3.32H767.37c-.58-1.12-1.16-2.23-1.76-3.32Z"/><polygon points="808.87 353.63 824.55 370.33 847.92 353.63 823.79 336.04 808.87 353.63"/><path d="M202.48,489c7.05-5.36,24.43-16,51.08-15.9,29.82.17,31.35,0,31.35,0v-5.6s-1.53-.17-31.35,0c-26.65.15-44-10.54-51.08-15.9a4.2,4.2,0,0,0-6,1c-10.9,15.73-25.87,14.92-25.87,14.92h-29c-6.59,0-9,.45-9,2.8s2.15,2.8,9,2.8h29s15-.81,25.87,14.92A4.2,4.2,0,0,0,202.48,489Z"/><path d="M284.91,473.08s-66.6,6.58-71.67,44.81c0,0,17.74,4.43,25.34,25.13,0,0-3.59-32.31,4.86-45.62s28.87-18.58,41.47-19.43Z"/><path d="M284.91,467.48s-66.6-6.58-71.67-44.81c0,0,17.74-4.43,25.34-25.13,0,0-3.59,32.32,4.86,45.62s28.87,18.59,41.47,19.43Z"/><path d="M284.91,470.28v32H267.18s8.18-2.57,8.18-10.56c0-5.56.16-21.45.16-21.45Z"/><path d="M284.91,470.28v-32H267.18s8.18,2.56,8.18,10.55c0,5.56.16,21.45.16,21.45Z"/><path d="M301.12,679.62c-7.08,0-16.23-2.48-26.18-11.42-12.64-11.33-17.43-26.62-13.49-43,4.47-18.57,19.74-34.76,37.15-39.37l.85,3.2c-16.28,4.32-30.58,19.51-34.77,36.94-3.65,15.18.78,29.31,12.47,39.8,10.71,9.6,22.38,12.81,32.85,9,9.27-3.35,16.42-11.88,17.81-21.24,1.34-9.09-1.55-17.76-7.74-23.18-5.53-4.85-12.85-6.3-20.59-4.08-5.2,1.48-8.82,4.12-10.75,7.85-3.28,6.31-.73,13.8-.71,13.88l-3.13,1.09c-.12-.35-3.05-8.87.88-16.47,2.37-4.58,6.67-7.79,12.8-9.54,8.86-2.54,17.28-.84,23.69,4.77,7,6.17,10.34,15.95,8.83,26.16-1.56,10.53-9.58,20.13-20,23.88A29.42,29.42,0,0,1,301.12,679.62Z"/><path d="M283.92,641.92s21.08-7.71,21.52,7.8S283.09,659.55,283.92,641.92Z"/><path d="M296.22,547c-.25.14-.5.25-.76.37a11.32,11.32,0,0,1-1.35.48l-.18,0-.84.2a26.67,26.67,0,0,1-10.54-.63,35.06,35.06,0,0,1-3.4-1c0-.59,0-1.16,0-1.69,0-.26,0-.5.05-.75v-.11a4.25,4.25,0,0,1,.07-.53c0-.28.06-.55.11-.8a15.53,15.53,0,0,1,9-11.94,12.14,12.14,0,0,1,3.21-.92C292.92,535.58,294.48,541.34,296.22,547Z"/><path d="M289.42,585.85l-1.16,3.1a36,36,0,0,1-6.09-3.22c-8.36-5.29-22.35-17.71-22.05-41.4.17-11.85,5.88-26.71,21.47-29.63a22.66,22.66,0,0,1,3.53-.38,20.11,20.11,0,0,1,3.39.08c.18,1.14.38,2.27.59,3.42a20.63,20.63,0,0,0-3.41-.22,23.58,23.58,0,0,0-3.49.37c-8.92,1.65-18.54,9.47-18.76,26.39-.36,29.51,22.86,40.18,25.7,41.37Z"/><path d="M300.85,560.68a19.55,19.55,0,0,1-3.12,1.1,23.18,23.18,0,0,1-4.64.75,11.53,11.53,0,0,1-11-5.81,22.25,22.25,0,0,1-2.92-10.24c0-.59,0-1.16,0-1.69,0-.26,0-.5.05-.75v-.11a4.25,4.25,0,0,1,.07-.53c0-.28.06-.55.11-.8a6,6,0,0,1,.63-1.81l2.86,1.68a11.39,11.39,0,0,0-.32,5,18.43,18.43,0,0,0,2.36,7.5,8.25,8.25,0,0,0,8,4.23,19.18,19.18,0,0,0,3.7-.57,17.75,17.75,0,0,0,3.13-1.07h0C300.09,558.61,300.47,559.66,300.85,560.68Z"/><path d="M313.41,589.05H257.24v-3.32h54.49C312.28,586.85,312.84,588,313.41,589.05Z"/><polygon points="269.87 587.4 254.19 570.7 230.82 587.4 254.95 604.99 269.87 587.4"/><path d="M298.6,355.24c-17.41-4.62-32.68-20.81-37.15-39.37-3.94-16.42.85-31.7,13.49-43,15.73-14.12,29.43-12.13,36.19-9.69,10.38,3.75,18.4,13.35,20,23.88,1.51,10.21-1.79,20-8.83,26.16-6.41,5.61-14.82,7.31-23.69,4.78-6.13-1.75-10.43-5-12.8-9.55-3.93-7.6-1-16.11-.88-16.47L288,293c0,.07-2.57,7.56.71,13.87,1.93,3.73,5.55,6.37,10.75,7.86,7.74,2.21,15.06.76,20.59-4.09,6.19-5.42,9.08-14.08,7.74-23.17-1.39-9.36-8.54-17.9-17.81-21.24-10.47-3.79-22.14-.58-32.85,9-11.69,10.49-16.12,24.62-12.47,39.79,4.19,17.43,18.49,32.62,34.77,36.94Z"/><path d="M283.92,299.12s21.08,7.71,21.52-7.81S283.09,281.49,283.92,299.12Z"/><path d="M297,394.52q-2.64,8.3-4.75,16.84a11.88,11.88,0,0,1-3.23-.71,15.54,15.54,0,0,1-9.66-12.21c-.05-.25-.08-.52-.11-.8a11.8,11.8,0,0,1-.12-1.39c0-.53,0-1.1,0-1.7,0,0,1.36-.49,3.4-1,3.05-.73,7.63-1.44,11.43-.42l.13,0c.24.06.45.13.69.21l.66.27.18.08a4.79,4.79,0,0,1,.71.37A7.48,7.48,0,0,1,297,394.52Z"/><path d="M289.7,423.12c-.23,1.15-.45,2.29-.65,3.45a23.64,23.64,0,0,1-2.93.18h-.47a24.7,24.7,0,0,1-4.06-.4c-15.59-2.92-21.3-17.78-21.47-29.63-.3-23.71,13.72-36.15,22.08-41.42a38.36,38.36,0,0,1,6.06-3.21l1.16,3.11-.25.1c-2.85,1.14-26.09,11.46-25.73,41.37.22,16.94,9.84,24.75,18.76,26.41a21.85,21.85,0,0,0,4.07.37A22.11,22.11,0,0,0,289.7,423.12Z"/><path d="M301.83,380.82c-.4,1-.78,2.07-1.18,3.1a15.84,15.84,0,0,0-3-1.24,19.09,19.09,0,0,0-4.71-.85,8.21,8.21,0,0,0-8,4.23,18.43,18.43,0,0,0-2.36,7.5,11.39,11.39,0,0,0,.32,5L280,400.24a6,6,0,0,1-.63-1.8c-.05-.25-.08-.52-.11-.8a11.8,11.8,0,0,1-.12-1.39c0-.53,0-1.1,0-1.7a22.21,22.21,0,0,1,2.92-10.23,11.49,11.49,0,0,1,11-5.81,22.75,22.75,0,0,1,5.69,1.05A18.27,18.27,0,0,1,301.83,380.82Z"/><path d="M315,352c-.59,1.09-1.17,2.2-1.75,3.32h-56V352Z"/><polygon points="269.87 353.63 254.19 370.33 230.82 353.63 254.95 336.04 269.87 353.63"/><path d="M787.05,548.31c-.3,0-.6-.07-.88-.12h-.1a3.89,3.89,0,0,1-.47-.09,4.31,4.31,0,0,1-.49-.11,2.42,2.42,0,0,1-.45-.1l-.45-.14c-1.09,3.52-2.27,7-3.52,10.47l-1.14,3.14a255.89,255.89,0,0,1-10.64,24.38h3.7a256.24,256.24,0,0,0,10.16-23.55c.4-1.06.78-2.11,1.16-3.19q1.89-5.25,3.57-10.63Zm-4.17-166.08c-.38-1.06-.78-2.11-1.19-3.15a256.4,256.4,0,0,0-10.6-23.79h-3.72a253,253,0,0,1,11.15,24.76c.4,1,.8,2.08,1.19,3.12q1.92,5.18,3.64,10.45a.29.29,0,0,1,.1,0,4.73,4.73,0,0,1,.66-.25l.38-.11a1.13,1.13,0,0,1,.37-.1,1,1,0,0,1,.25-.07,5.47,5.47,0,0,1,.61-.13,5.77,5.77,0,0,1,.83-.15Q784.83,387.46,782.88,382.23ZM631.48,710.56l-3.1,1.17q-5.19,1.92-10.48,3.6c.06.27.13.53.2.82s.08.39.11.59a.85.85,0,0,1,0,.22c0,.22.06.41.08.63s.08.7.1,1.06c3.6-1.14,7.15-2.37,10.67-3.66,1.06-.39,2.12-.78,3.18-1.2a249.08,249.08,0,0,0,23.51-10.33v-3.7A259.44,259.44,0,0,1,631.48,710.56ZM631.55,230c-1-.4-2.07-.78-3.12-1.16Q623.24,227,618,225.29c-.05.21-.12.45-.19.66a5,5,0,0,1-.21.58,4.43,4.43,0,0,1-.3.67,3.78,3.78,0,0,1-.25.49,3.54,3.54,0,0,1-.4.65q5.35,1.69,10.6,3.58l3.14,1.17a258.48,258.48,0,0,1,25.45,11.24v-3.7A256.83,256.83,0,0,0,631.55,230Zm-167.44-2.33a8.11,8.11,0,0,1-.41-.84l-.14-.3-.2-.58c-.08-.27-.16-.53-.23-.81q-5.29,1.67-10.5,3.55c-1,.36-2.07.74-3.1,1.16a251.34,251.34,0,0,0-24.19,10.52v3.71a251,251,0,0,1,25.37-11.16c1-.39,2.09-.78,3.13-1.15,3.5-1.26,7-2.45,10.59-3.57A3.92,3.92,0,0,1,464.11,227.69ZM452.7,711.9l-3.11-1.18A251.4,251.4,0,0,1,425.34,700v3.71A254.29,254.29,0,0,0,448.81,714c1.07.41,2.13.81,3.19,1.19q5.28,2,10.68,3.63a5.27,5.27,0,0,1,0-.56l0-.5c0-.33.08-.66.13-1a1.1,1.1,0,0,0,0-.16c.07-.38.15-.75.25-1.11C459.65,714.36,456.16,713.16,452.7,711.9ZM309.56,355.29a252.39,252.39,0,0,0-10.78,24.27c-.4,1-.8,2.07-1.18,3.12q-1.92,5.18-3.62,10.46l.13,0c.24.06.45.13.69.21l.66.27.18.08a4.79,4.79,0,0,1,.71.37,7.48,7.48,0,0,1,.67.41q1.71-5.36,3.63-10.6c.4-1,.78-2.07,1.18-3.1a254.59,254.59,0,0,1,11.45-25.53Zm-8.71,205.39c-.38-1-.76-2.07-1.11-3.11h0q-1.86-5.24-3.5-10.56c-.25.14-.5.25-.76.37a11.32,11.32,0,0,1-1.35.48l-.18,0-.84.2c1.09,3.55,2.25,7.07,3.5,10.53l1.14,3.14a255.39,255.39,0,0,0,10.3,24h3.7A252.54,252.54,0,0,1,300.85,560.68Zm482-178.45c-.38-1.06-.78-2.11-1.19-3.15a20.89,20.89,0,0,0-3.17,1c.4,1,.8,2.08,1.19,3.12q1.92,5.18,3.64,10.45a.29.29,0,0,1,.1,0,4.73,4.73,0,0,1,.66-.25l.38-.11a1.13,1.13,0,0,1,.37-.1,1,1,0,0,1,.25-.07,5.47,5.47,0,0,1,.61-.13,5.77,5.77,0,0,1,.83-.15Q784.83,387.46,782.88,382.23ZM631.48,710.56l-3.1,1.17q-5.19,1.92-10.48,3.6c.06.27.13.53.2.82s.08.39.11.59a.85.85,0,0,1,0,.22c0,.22.06.41.08.63s.08.7.1,1.06c3.6-1.14,7.15-2.37,10.67-3.66,1.06-.39,2.12-.78,3.18-1.2A19.31,19.31,0,0,0,631.48,710.56ZM464.11,227.69a8.11,8.11,0,0,1-.41-.84l-.14-.3-.2-.58a7.49,7.49,0,0,1-.23-.81q-5.29,1.67-10.5,3.55a17,17,0,0,0,1.21,3.08c3.5-1.26,7-2.45,10.59-3.57A3.92,3.92,0,0,1,464.11,227.69ZM299.74,557.57h0q-1.86-5.24-3.5-10.56c-.25.14-.5.25-.76.37a11.32,11.32,0,0,1-1.35.48l-.18,0-.84.2c1.09,3.55,2.25,7.07,3.5,10.53l1.14,3.14a19.55,19.55,0,0,0,3.12-1.1C300.47,559.66,300.09,558.61,299.74,557.57ZM782.88,382.23c-.38-1.06-.78-2.11-1.19-3.15a20.89,20.89,0,0,0-3.17,1c.4,1,.8,2.08,1.19,3.12q1.92,5.18,3.64,10.45a.29.29,0,0,1,.1,0,4.73,4.73,0,0,1,.66-.25l.38-.11a1.13,1.13,0,0,1,.37-.1,1,1,0,0,1,.25-.07,5.47,5.47,0,0,1,.61-.13,5.77,5.77,0,0,1,.83-.15Q784.83,387.46,782.88,382.23ZM631.48,710.56l-3.1,1.17q-5.19,1.92-10.48,3.6c.06.27.13.53.2.82s.08.39.11.59a.85.85,0,0,1,0,.22c0,.22.06.41.08.63s.08.7.1,1.06c3.6-1.14,7.15-2.37,10.67-3.66,1.06-.39,2.12-.78,3.18-1.2A19.31,19.31,0,0,0,631.48,710.56ZM618,225.29c-.05.21-.12.45-.19.66a5,5,0,0,1-.21.58,4.43,4.43,0,0,1-.3.67,3.78,3.78,0,0,1-.25.49,3.54,3.54,0,0,1-.4.65q5.35,1.69,10.6,3.58a16.17,16.17,0,0,0,1.23-3.06Q623.24,227,618,225.29Zm-153.84,2.4a8.11,8.11,0,0,1-.41-.84l-.14-.3-.2-.58a7.49,7.49,0,0,1-.23-.81q-5.29,1.67-10.5,3.55a17,17,0,0,0,1.21,3.08c3.5-1.26,7-2.45,10.59-3.57A3.92,3.92,0,0,1,464.11,227.69ZM299.74,557.57h0q-1.86-5.24-3.5-10.56c-.25.14-.5.25-.76.37a11.32,11.32,0,0,1-1.35.48l-.18,0-.84.2c1.09,3.55,2.25,7.07,3.5,10.53l1.14,3.14a19.55,19.55,0,0,0,3.12-1.1C300.47,559.66,300.09,558.61,299.74,557.57ZM782.88,382.23a17.91,17.91,0,0,0-3.17.94q1.92,5.18,3.64,10.45a.29.29,0,0,1,.1,0,4.73,4.73,0,0,1,.66-.25l.38-.11a1.13,1.13,0,0,1,.37-.1,1,1,0,0,1,.25-.07,5.47,5.47,0,0,1,.61-.13,5.77,5.77,0,0,1,.83-.15Q784.83,387.46,782.88,382.23ZM631.48,710.56l-3.1,1.17q-5.19,1.92-10.48,3.6c.06.27.13.53.2.82s.08.39.11.59a.85.85,0,0,1,0,.22c0,.22.06.41.08.63s.08.7.1,1.06c3.6-1.14,7.15-2.37,10.67-3.66,1.06-.39,2.12-.78,3.18-1.2A19.31,19.31,0,0,0,631.48,710.56ZM618,225.29c-.05.21-.12.45-.19.66a5,5,0,0,1-.21.58,4.43,4.43,0,0,1-.3.67,3.78,3.78,0,0,1-.25.49,3.54,3.54,0,0,1-.4.65q5.35,1.69,10.6,3.58a16.17,16.17,0,0,0,1.23-3.06Q623.24,227,618,225.29Zm-153.84,2.4a8.11,8.11,0,0,1-.41-.84l-.14-.3-.2-.58a7.49,7.49,0,0,1-.23-.81q-5.29,1.67-10.5,3.55a17,17,0,0,0,1.21,3.08c3.5-1.26,7-2.45,10.59-3.57A3.92,3.92,0,0,1,464.11,227.69ZM299.74,557.57h0q-1.86-5.24-3.5-10.56c-.25.14-.5.25-.76.37a11.32,11.32,0,0,1-1.35.48l-.18,0-.84.2c1.09,3.55,2.25,7.07,3.5,10.53l1.14,3.14a19.55,19.55,0,0,0,3.12-1.1C300.47,559.66,300.09,558.61,299.74,557.57ZM782.88,382.23a17.91,17.91,0,0,0-3.17.94q1.92,5.18,3.64,10.45a.29.29,0,0,1,.1,0,4.73,4.73,0,0,1,.66-.25l.38-.11a1.13,1.13,0,0,1,.37-.1,1,1,0,0,1,.25-.07,5.47,5.47,0,0,1,.61-.13,5.77,5.77,0,0,1,.83-.15Q784.83,387.46,782.88,382.23ZM631.48,710.56l-3.1,1.17q-5.19,1.92-10.48,3.6c.06.27.13.53.2.82s.08.39.11.59a.85.85,0,0,1,0,.22c0,.22.06.41.08.63s.08.7.1,1.06c3.6-1.14,7.15-2.37,10.67-3.66,1.06-.39,2.12-.78,3.18-1.2A19.31,19.31,0,0,0,631.48,710.56ZM618,225.29c-.05.21-.12.45-.19.66a5,5,0,0,1-.21.58,4.43,4.43,0,0,1-.3.67,3.78,3.78,0,0,1-.25.49,3.54,3.54,0,0,1-.4.65q5.35,1.69,10.6,3.58a16.17,16.17,0,0,0,1.23-3.06Q623.24,227,618,225.29Zm-153.84,2.4a8.11,8.11,0,0,1-.41-.84l-.14-.3-.2-.58a7.49,7.49,0,0,1-.23-.81q-5.29,1.67-10.5,3.55a17,17,0,0,0,1.21,3.08c3.5-1.26,7-2.45,10.59-3.57A3.92,3.92,0,0,1,464.11,227.69ZM299.74,557.57h0q-1.86-5.24-3.5-10.56c-.25.14-.5.25-.76.37a11.32,11.32,0,0,1-1.35.48l-.18,0-.84.2c1.09,3.55,2.25,7.07,3.5,10.53l1.14,3.14a19.55,19.55,0,0,0,3.12-1.1C300.47,559.66,300.09,558.61,299.74,557.57Zm487.31-9.26c-.3,0-.6-.07-.88-.12h-.1a3.89,3.89,0,0,1-.47-.09,4.31,4.31,0,0,1-.49-.11,2.42,2.42,0,0,1-.45-.1l-.45-.14c-1.09,3.52-2.27,7-3.52,10.47a16.31,16.31,0,0,0,3.24.78q1.89-5.25,3.57-10.63Zm-4.17-166.08a17.91,17.91,0,0,0-3.17.94q1.92,5.18,3.64,10.45a.29.29,0,0,1,.1,0,4.73,4.73,0,0,1,.66-.25l.38-.11a1.13,1.13,0,0,1,.37-.1,1,1,0,0,1,.25-.07,5.47,5.47,0,0,1,.61-.13,5.77,5.77,0,0,1,.83-.15Q784.83,387.46,782.88,382.23ZM631.48,710.56l-3.1,1.17q-5.19,1.92-10.48,3.6c.06.27.13.53.2.82s.08.39.11.59a.85.85,0,0,1,0,.22c0,.22.06.41.08.63s.08.7.1,1.06c3.6-1.14,7.15-2.37,10.67-3.66,1.06-.39,2.12-.78,3.18-1.2A19.31,19.31,0,0,0,631.48,710.56ZM618,225.29c-.05.21-.12.45-.19.66a5,5,0,0,1-.21.58,4.43,4.43,0,0,1-.3.67,3.78,3.78,0,0,1-.25.49,3.54,3.54,0,0,1-.4.65q5.35,1.69,10.6,3.58a16.17,16.17,0,0,0,1.23-3.06Q623.24,227,618,225.29Zm-153.84,2.4a8.11,8.11,0,0,1-.41-.84l-.14-.3-.2-.58a7.49,7.49,0,0,1-.23-.81q-5.29,1.67-10.5,3.55a17,17,0,0,0,1.21,3.08c3.5-1.26,7-2.45,10.59-3.57A3.92,3.92,0,0,1,464.11,227.69ZM299.74,557.57h0q-1.86-5.24-3.5-10.56c-.25.14-.5.25-.76.37a11.32,11.32,0,0,1-1.35.48l-.18,0-.84.2c1.09,3.55,2.25,7.07,3.5,10.53l1.14,3.14a19.55,19.55,0,0,0,3.12-1.1C300.47,559.66,300.09,558.61,299.74,557.57Zm487.31-9.26c-.3,0-.6-.07-.88-.12h-.1a3.89,3.89,0,0,1-.47-.09,4.31,4.31,0,0,1-.49-.11,2.42,2.42,0,0,1-.45-.1l-.45-.14c-1.09,3.52-2.27,7-3.52,10.47a16.31,16.31,0,0,0,3.24.78q1.89-5.25,3.57-10.63Zm-4.17-166.08a17.91,17.91,0,0,0-3.17.94q1.92,5.18,3.64,10.45a.29.29,0,0,1,.1,0,4.73,4.73,0,0,1,.66-.25l.38-.11a1.13,1.13,0,0,1,.37-.1,1,1,0,0,1,.25-.07,5.47,5.47,0,0,1,.61-.13,5.77,5.77,0,0,1,.83-.15Q784.83,387.46,782.88,382.23Zm-154.5,329.5q-5.19,1.92-10.48,3.6c.06.27.13.53.2.82s.08.39.11.59a.85.85,0,0,1,0,.22c0,.22.06.41.08.63s.08.7.1,1.06c3.6-1.14,7.15-2.37,10.67-3.66A18.86,18.86,0,0,0,628.38,711.73ZM618,225.29c-.05.21-.12.45-.19.66a5,5,0,0,1-.21.58,4.43,4.43,0,0,1-.3.67,3.78,3.78,0,0,1-.25.49,3.54,3.54,0,0,1-.4.65q5.35,1.69,10.6,3.58a16.17,16.17,0,0,0,1.23-3.06Q623.24,227,618,225.29Zm-153.84,2.4a8.11,8.11,0,0,1-.41-.84l-.14-.3-.2-.58a7.49,7.49,0,0,1-.23-.81q-5.29,1.67-10.5,3.55a17,17,0,0,0,1.21,3.08c3.5-1.26,7-2.45,10.59-3.57A3.92,3.92,0,0,1,464.11,227.69ZM452.7,711.9a16.32,16.32,0,0,0-.7,3.25q5.28,2,10.68,3.63a5.27,5.27,0,0,1,0-.56l0-.5c0-.33.08-.66.13-1a1.1,1.1,0,0,0,0-.16c.07-.38.15-.75.25-1.11C459.65,714.36,456.16,713.16,452.7,711.9Zm-153-154.33h0q-1.86-5.24-3.5-10.56c-.25.14-.5.25-.76.37a11.32,11.32,0,0,1-1.35.48l-.18,0-.84.2c1.09,3.55,2.25,7.07,3.5,10.53l1.14,3.14a19.55,19.55,0,0,0,3.12-1.1C300.47,559.66,300.09,558.61,299.74,557.57Zm487.31-9.26c-.3,0-.6-.07-.88-.12h-.1a3.89,3.89,0,0,1-.47-.09,4.31,4.31,0,0,1-.49-.11,2.42,2.42,0,0,1-.45-.1l-.45-.14c-1.09,3.52-2.27,7-3.52,10.47a16.31,16.31,0,0,0,3.24.78q1.89-5.25,3.57-10.63Zm-4.17-166.08a17.91,17.91,0,0,0-3.17.94q1.92,5.18,3.64,10.45a.29.29,0,0,1,.1,0,4.73,4.73,0,0,1,.66-.25l.38-.11a1.13,1.13,0,0,1,.37-.1,1,1,0,0,1,.25-.07,5.47,5.47,0,0,1,.61-.13,5.77,5.77,0,0,1,.83-.15Q784.83,387.46,782.88,382.23Zm-154.5,329.5q-5.19,1.92-10.48,3.6c.06.27.13.53.2.82s.08.39.11.59a.85.85,0,0,1,0,.22c0,.22.06.41.08.63s.08.7.1,1.06c3.6-1.14,7.15-2.37,10.67-3.66A18.86,18.86,0,0,0,628.38,711.73ZM618,225.29c-.05.21-.12.45-.19.66a5,5,0,0,1-.21.58,4.43,4.43,0,0,1-.3.67,3.78,3.78,0,0,1-.25.49,3.54,3.54,0,0,1-.4.65q5.35,1.69,10.6,3.58a16.17,16.17,0,0,0,1.23-3.06Q623.24,227,618,225.29Zm-153.84,2.4a8.11,8.11,0,0,1-.41-.84l-.14-.3-.2-.58a7.49,7.49,0,0,1-.23-.81q-5.29,1.67-10.5,3.55a17,17,0,0,0,1.21,3.08c3.5-1.26,7-2.45,10.59-3.57A3.92,3.92,0,0,1,464.11,227.69ZM452.7,711.9a16.32,16.32,0,0,0-.7,3.25q5.28,2,10.68,3.63a5.27,5.27,0,0,1,0-.56l0-.5c0-.33.08-.66.13-1a1.1,1.1,0,0,0,0-.16c.07-.38.15-.75.25-1.11C459.65,714.36,456.16,713.16,452.7,711.9Zm-153-154.33h0q-1.86-5.24-3.5-10.56c-.25.14-.5.25-.76.37a11.32,11.32,0,0,1-1.35.48l-.18,0-.84.2c1.09,3.55,2.25,7.07,3.5,10.53l1.14,3.14a19.55,19.55,0,0,0,3.12-1.1C300.47,559.66,300.09,558.61,299.74,557.57Zm487.31-9.26c-.3,0-.6-.07-.88-.12h-.1a3.89,3.89,0,0,1-.47-.09,4.31,4.31,0,0,1-.49-.11,2.42,2.42,0,0,1-.45-.1l-.45-.14c-1.09,3.52-2.27,7-3.52,10.47a16.31,16.31,0,0,0,3.24.78q1.89-5.25,3.57-10.63Zm-3.6-154.72a4.73,4.73,0,0,1,.66-.25l.38-.11a1.13,1.13,0,0,1,.37-.1,1,1,0,0,1,.25-.07,5.47,5.47,0,0,1,.61-.13,5.77,5.77,0,0,1,.83-.15q-1.72-5.32-3.67-10.55a17.91,17.91,0,0,0-3.17.94q1.92,5.18,3.64,10.45A.29.29,0,0,1,783.45,393.59ZM617.9,715.33c.06.27.13.53.2.82s.08.39.11.59a.85.85,0,0,1,0,.22c0,.22.06.41.08.63s.08.7.1,1.06c3.6-1.14,7.15-2.37,10.67-3.66a18.86,18.86,0,0,0-.72-3.26Q623.19,713.65,617.9,715.33Zm10.53-486.47Q623.24,227,618,225.29c-.05.21-.12.45-.19.66a5,5,0,0,1-.21.58,4.43,4.43,0,0,1-.3.67,3.78,3.78,0,0,1-.25.49,3.54,3.54,0,0,1-.4.65q5.35,1.69,10.6,3.58A16.17,16.17,0,0,0,628.43,228.86Zm-164.73-2-.14-.3-.2-.58a7.49,7.49,0,0,1-.23-.81q-5.29,1.67-10.5,3.55a17,17,0,0,0,1.21,3.08c3.5-1.26,7-2.45,10.59-3.57a3.92,3.92,0,0,1-.32-.53A8.11,8.11,0,0,1,463.7,226.85ZM452,715.15q5.28,2,10.68,3.63a5.27,5.27,0,0,1,0-.56l0-.5c0-.33.08-.66.13-1a1.1,1.1,0,0,0,0-.16c.07-.38.15-.75.25-1.11-3.53-1.11-7-2.31-10.48-3.57A16.32,16.32,0,0,0,452,715.15Zm-158-322,.13,0c.24.06.45.13.69.21l.66.27.18.08a4.79,4.79,0,0,1,.71.37,7.48,7.48,0,0,1,.67.41q1.71-5.36,3.63-10.6a15.84,15.84,0,0,0-3-1.24Q295.68,387.86,294,393.14Zm1.48,154.24a11.32,11.32,0,0,1-1.35.48l-.18,0-.84.2c1.09,3.55,2.25,7.07,3.5,10.53a17.75,17.75,0,0,0,3.13-1.07q-1.86-5.24-3.5-10.56C296,547.15,295.72,547.26,295.46,547.38ZM799,470.29c0-1,0-1.91,0-2.86v-.64c0-1.58-.09-3.14-.14-4.72q-.46-12-2-23.8-.75-5.85-1.79-11.63c-.19-1.1-.4-2.19-.62-3.29q-1.29-6.81-3-13.48-2.14-8.67-4.86-17.09-1.72-5.32-3.67-10.55c-.38-1.06-.78-2.11-1.19-3.15a256.4,256.4,0,0,0-10.6-23.79c-.57-1.12-1.15-2.23-1.73-3.32A260.33,260.33,0,0,0,659.11,242.33c-1.1-.57-2.21-1.15-3.32-1.7A256.83,256.83,0,0,0,631.55,230c-1-.4-2.07-.78-3.12-1.16Q623.24,227,618,225.29c-5.76-1.81-11.58-3.42-17.5-4.83-4.24-1-8.48-1.92-12.8-2.72-1.09-.22-2.2-.41-3.31-.6q-6-1-12-1.77-11.88-1.47-24.06-1.86c-1.59,0-3.18-.08-4.78-.1h-.33c-.94,0-1.89,0-2.84,0s-1.9,0-2.85,0h-.31c-1.6,0-3.19.05-4.78.1q-12.18.38-24.06,1.86-5.82.72-11.54,1.69c-1.12.18-2.21.38-3.31.6q-6.47,1.17-12.82,2.68-8.88,2.11-17.52,4.82-5.29,1.67-10.5,3.55c-1,.36-2.07.74-3.1,1.16a251.34,251.34,0,0,0-24.19,10.52c-1.11.56-2.22,1.12-3.32,1.69A260.25,260.25,0,0,0,311.29,352c-.59,1.09-1.17,2.2-1.73,3.32a252.39,252.39,0,0,0-10.78,24.27c-.4,1-.8,2.07-1.18,3.12q-1.92,5.18-3.62,10.46c-1.84,5.74-3.5,11.58-4.94,17.51q-1.55,6.32-2.77,12.79c-.22,1.09-.43,2.19-.62,3.3q-1,5.72-1.77,11.53-1.58,11.87-2,24c-.07,1.59-.1,3.17-.14,4.76v.36c0,.95,0,1.89,0,2.86,0,.58,0,1.17,0,1.75v1.46c0,1.6,0,3.17.07,4.75q.3,12.17,1.69,24c.47,4,1.05,8,1.69,12,.19,1.09.37,2.19.57,3.28.78,4.4,1.67,8.74,2.68,13.06,1.38,5.89,2.94,11.71,4.72,17.45,1.09,3.55,2.25,7.07,3.5,10.53l1.14,3.14a255.39,255.39,0,0,0,10.3,24c.55,1.12,1.1,2.23,1.66,3.32A260.51,260.51,0,0,0,422,702c1.1.57,2.21,1.13,3.32,1.69A254.29,254.29,0,0,0,448.81,714c1.07.41,2.13.81,3.19,1.19q5.28,2,10.68,3.63,8.11,2.57,16.44,4.6c4.67,1.13,9.36,2.14,14.12,3,1.08.22,2.18.42,3.27.6q5.88,1,11.81,1.74c7.78,1,15.66,1.59,23.63,1.84,1.57.05,3.13.09,4.71.12h.79c.95,0,1.91,0,2.87,0s1.91,0,2.86,0H544c1.58,0,3.14-.07,4.71-.12,8-.25,15.84-.88,23.63-1.84,4.11-.51,8.21-1.11,12.26-1.82,1.09-.19,2.19-.38,3.28-.6,4.74-.86,9.44-1.89,14.07-3q8.35-2.07,16.49-4.63c3.6-1.14,7.15-2.37,10.67-3.66,1.06-.39,2.12-.78,3.18-1.2a249.08,249.08,0,0,0,23.51-10.33c1.11-.55,2.22-1.13,3.32-1.7A260.44,260.44,0,0,0,771,589.05c.56-1.09,1.11-2.2,1.65-3.32a256.24,256.24,0,0,0,10.16-23.55c.4-1.06.78-2.11,1.16-3.19q1.89-5.25,3.57-10.63c1.69-5.53,3.23-11.15,4.56-16.82,1.09-4.57,2-9.16,2.87-13.81.2-1.09.4-2.19.56-3.28q1-6,1.73-12.16c.91-7.83,1.47-15.78,1.67-23.79.05-1.58.07-3.14.07-4.71,0-.22,0-.43,0-.65V472C799,471.46,799,470.87,799,470.29Zm-3.3,3c0,1.6,0,3.2-.07,4.81-.2,8.14-.78,16.22-1.72,24.17-.47,4-1,8-1.71,12-.19,1.11-.38,2.22-.58,3.33-.77,4.22-1.63,8.4-2.61,12.53q-2.07,8.91-4.76,17.58c-1.09,3.52-2.27,7-3.52,10.47l-1.14,3.14a255.89,255.89,0,0,1-10.64,24.38c-.54,1.12-1.11,2.23-1.67,3.32A257.23,257.23,0,0,1,659.11,698l-3.32,1.73a259.44,259.44,0,0,1-24.31,10.8l-3.1,1.17q-5.19,1.92-10.48,3.6-8.61,2.77-17.5,4.91-6.3,1.53-12.75,2.74-1.67.33-3.33.6-5.94,1-12,1.79-11.88,1.51-24.06,1.89c-1.59,0-3.18.08-4.78.1h-.33c-.94,0-1.89,0-2.84,0s-1.9,0-2.85,0h-.31c-1.6,0-3.19-.05-4.78-.1q-12.18-.37-24.06-1.89c-3.88-.48-7.73-1-11.54-1.71-1.12-.18-2.23-.38-3.32-.6q-6.45-1.18-12.78-2.72-8.88-2.13-17.5-4.87c-3.53-1.11-7-2.31-10.48-3.57l-3.11-1.18A251.4,251.4,0,0,1,425.34,700c-1.11-.57-2.22-1.13-3.32-1.71A257.2,257.2,0,0,1,313.41,589.05c-.57-1.09-1.13-2.2-1.68-3.32a252.54,252.54,0,0,1-10.88-25.05c-.38-1-.76-2.07-1.11-3.11h0q-1.86-5.24-3.5-10.56c-1.74-5.67-3.3-11.43-4.64-17.27q-1.4-5.9-2.48-11.92c-.21-1.15-.41-2.28-.59-3.42a256.65,256.65,0,0,1,.54-87.83c.2-1.16.42-2.3.65-3.45q1.16-5.94,2.57-11.76,2.1-8.53,4.75-16.84,1.71-5.36,3.63-10.6c.4-1,.78-2.07,1.18-3.1a254.59,254.59,0,0,1,11.45-25.53c.58-1.12,1.16-2.23,1.75-3.32A257.14,257.14,0,0,1,422,245.81c1.1-.58,2.21-1.14,3.32-1.71a251,251,0,0,1,25.37-11.16c1-.39,2.09-.78,3.13-1.15,3.5-1.26,7-2.45,10.59-3.57q8.35-2.61,17-4.64c3.88-.93,7.79-1.76,11.76-2.49,1.14-.23,2.29-.43,3.45-.63a256.79,256.79,0,0,1,87.91.08c1.16.2,2.31.42,3.45.63,4,.75,7.88,1.58,11.76,2.53q8.57,2,16.87,4.64,5.35,1.69,10.6,3.58l3.14,1.17a258.48,258.48,0,0,1,25.45,11.24l3.32,1.73A257.07,257.07,0,0,1,765.61,352c.6,1.09,1.18,2.2,1.76,3.32a253,253,0,0,1,11.15,24.76c.4,1,.8,2.08,1.19,3.12q1.92,5.18,3.64,10.45c1.84,5.73,3.5,11.55,4.94,17.46q1.51,6.09,2.71,12.29c.23,1.11.43,2.24.63,3.37q1.32,7.32,2.2,14.76,1.24,10.35,1.64,20.94c.07,1.61.12,3.22.14,4.83v.18c0,.95,0,1.89,0,2.84,0,.58,0,1.17,0,1.75ZM296.22,547c-.25.14-.5.25-.76.37a11.32,11.32,0,0,1-1.35.48l-.18,0-.84.2c1.09,3.55,2.25,7.07,3.5,10.53a17.75,17.75,0,0,0,3.13-1.07Q297.86,552.34,296.22,547ZM452.7,711.9a16.32,16.32,0,0,0-.7,3.25q5.28,2,10.68,3.63a5.27,5.27,0,0,1,0-.56l0-.5c0-.33.08-.66.13-1a1.1,1.1,0,0,0,0-.16c.07-.38.15-.75.25-1.11C459.65,714.36,456.16,713.16,452.7,711.9Zm11.41-484.21a8.11,8.11,0,0,1-.41-.84l-.14-.3-.2-.58a7.49,7.49,0,0,1-.23-.81q-5.29,1.67-10.5,3.55a17,17,0,0,0,1.21,3.08c3.5-1.26,7-2.45,10.59-3.57A3.92,3.92,0,0,1,464.11,227.69ZM618,225.29c-.05.21-.12.45-.19.66a5,5,0,0,1-.21.58,4.43,4.43,0,0,1-.3.67,3.78,3.78,0,0,1-.25.49,3.54,3.54,0,0,1-.4.65q5.35,1.69,10.6,3.58a16.17,16.17,0,0,0,1.23-3.06Q623.24,227,618,225.29Zm10.43,486.44q-5.19,1.92-10.48,3.6c.06.27.13.53.2.82s.08.39.11.59a.85.85,0,0,1,0,.22c0,.22.06.41.08.63s.08.7.1,1.06c3.6-1.14,7.15-2.37,10.67-3.66A18.86,18.86,0,0,0,628.38,711.73Zm154.5-329.5a17.91,17.91,0,0,0-3.17.94q1.92,5.18,3.64,10.45a.29.29,0,0,1,.1,0,4.73,4.73,0,0,1,.66-.25l.38-.11a1.13,1.13,0,0,1,.37-.1,1,1,0,0,1,.25-.07,5.47,5.47,0,0,1,.61-.13,5.77,5.77,0,0,1,.83-.15Q784.83,387.46,782.88,382.23Zm4.17,166.08c-.3,0-.6-.07-.88-.12h-.1a3.89,3.89,0,0,1-.47-.09,4.31,4.31,0,0,1-.49-.11,2.42,2.42,0,0,1-.45-.1l-.45-.14c-1.09,3.52-2.27,7-3.52,10.47a16.31,16.31,0,0,0,3.24.78q1.89-5.25,3.57-10.63Zm-487.31,9.26h0q-1.86-5.24-3.5-10.56c-.25.14-.5.25-.76.37a11.32,11.32,0,0,1-1.35.48l-.18,0-.84.2c1.09,3.55,2.25,7.07,3.5,10.53l1.14,3.14a19.55,19.55,0,0,0,3.12-1.1C300.47,559.66,300.09,558.61,299.74,557.57Zm153,154.33a16.32,16.32,0,0,0-.7,3.25q5.28,2,10.68,3.63a5.27,5.27,0,0,1,0-.56l0-.5c0-.33.08-.66.13-1a1.1,1.1,0,0,0,0-.16c.07-.38.15-.75.25-1.11C459.65,714.36,456.16,713.16,452.7,711.9Zm11.41-484.21a8.11,8.11,0,0,1-.41-.84l-.14-.3-.2-.58a7.49,7.49,0,0,1-.23-.81q-5.29,1.67-10.5,3.55a17,17,0,0,0,1.21,3.08c3.5-1.26,7-2.45,10.59-3.57A3.92,3.92,0,0,1,464.11,227.69ZM618,225.29c-.05.21-.12.45-.19.66a5,5,0,0,1-.21.58,4.43,4.43,0,0,1-.3.67,3.78,3.78,0,0,1-.25.49,3.54,3.54,0,0,1-.4.65q5.35,1.69,10.6,3.58a16.17,16.17,0,0,0,1.23-3.06Q623.24,227,618,225.29Zm10.43,486.44q-5.19,1.92-10.48,3.6c.06.27.13.53.2.82s.08.39.11.59a.85.85,0,0,1,0,.22c0,.22.06.41.08.63s.08.7.1,1.06c3.6-1.14,7.15-2.37,10.67-3.66A18.86,18.86,0,0,0,628.38,711.73Zm154.5-329.5a17.91,17.91,0,0,0-3.17.94q1.92,5.18,3.64,10.45a.29.29,0,0,1,.1,0,4.73,4.73,0,0,1,.66-.25l.38-.11a1.13,1.13,0,0,1,.37-.1,1,1,0,0,1,.25-.07,5.47,5.47,0,0,1,.61-.13,5.77,5.77,0,0,1,.83-.15Q784.83,387.46,782.88,382.23Zm4.17,166.08c-.3,0-.6-.07-.88-.12h-.1a3.89,3.89,0,0,1-.47-.09,4.31,4.31,0,0,1-.49-.11,2.42,2.42,0,0,1-.45-.1l-.45-.14c-1.09,3.52-2.27,7-3.52,10.47a16.31,16.31,0,0,0,3.24.78q1.89-5.25,3.57-10.63Zm-487.31,9.26h0q-1.86-5.24-3.5-10.56c-.25.14-.5.25-.76.37a11.32,11.32,0,0,1-1.35.48l-.18,0-.84.2c1.09,3.55,2.25,7.07,3.5,10.53l1.14,3.14a19.55,19.55,0,0,0,3.12-1.1C300.47,559.66,300.09,558.61,299.74,557.57ZM464.11,227.69a8.11,8.11,0,0,1-.41-.84l-.14-.3-.2-.58a7.49,7.49,0,0,1-.23-.81q-5.29,1.67-10.5,3.55a17,17,0,0,0,1.21,3.08c3.5-1.26,7-2.45,10.59-3.57A3.92,3.92,0,0,1,464.11,227.69ZM618,225.29c-.05.21-.12.45-.19.66a5,5,0,0,1-.21.58,4.43,4.43,0,0,1-.3.67,3.78,3.78,0,0,1-.25.49,3.54,3.54,0,0,1-.4.65q5.35,1.69,10.6,3.58a16.17,16.17,0,0,0,1.23-3.06Q623.24,227,618,225.29Zm10.43,486.44q-5.19,1.92-10.48,3.6c.06.27.13.53.2.82s.08.39.11.59a.85.85,0,0,1,0,.22c0,.22.06.41.08.63s.08.7.1,1.06c3.6-1.14,7.15-2.37,10.67-3.66A18.86,18.86,0,0,0,628.38,711.73Zm154.5-329.5a17.91,17.91,0,0,0-3.17.94q1.92,5.18,3.64,10.45a.29.29,0,0,1,.1,0,4.73,4.73,0,0,1,.66-.25l.38-.11a1.13,1.13,0,0,1,.37-.1,1,1,0,0,1,.25-.07,5.47,5.47,0,0,1,.61-.13,5.77,5.77,0,0,1,.83-.15Q784.83,387.46,782.88,382.23Zm4.17,166.08c-.3,0-.6-.07-.88-.12h-.1a3.89,3.89,0,0,1-.47-.09,4.31,4.31,0,0,1-.49-.11,2.42,2.42,0,0,1-.45-.1l-.45-.14c-1.09,3.52-2.27,7-3.52,10.47a16.31,16.31,0,0,0,3.24.78q1.89-5.25,3.57-10.63Zm-487.31,9.26h0q-1.86-5.24-3.5-10.56c-.25.14-.5.25-.76.37a11.32,11.32,0,0,1-1.35.48l-.18,0-.84.2c1.09,3.55,2.25,7.07,3.5,10.53l1.14,3.14a19.55,19.55,0,0,0,3.12-1.1C300.47,559.66,300.09,558.61,299.74,557.57ZM464.11,227.69a8.11,8.11,0,0,1-.41-.84l-.14-.3-.2-.58a7.49,7.49,0,0,1-.23-.81q-5.29,1.67-10.5,3.55a17,17,0,0,0,1.21,3.08c3.5-1.26,7-2.45,10.59-3.57A3.92,3.92,0,0,1,464.11,227.69ZM618,225.29c-.05.21-.12.45-.19.66a5,5,0,0,1-.21.58,4.43,4.43,0,0,1-.3.67,3.78,3.78,0,0,1-.25.49,3.54,3.54,0,0,1-.4.65q5.35,1.69,10.6,3.58a16.17,16.17,0,0,0,1.23-3.06Q623.24,227,618,225.29Zm13.53,485.27-3.1,1.17q-5.19,1.92-10.48,3.6c.06.27.13.53.2.82s.08.39.11.59a.85.85,0,0,1,0,.22c0,.22.06.41.08.63s.08.7.1,1.06c3.6-1.14,7.15-2.37,10.67-3.66,1.06-.39,2.12-.78,3.18-1.2A19.31,19.31,0,0,0,631.48,710.56Zm151.4-328.33a17.91,17.91,0,0,0-3.17.94q1.92,5.18,3.64,10.45a.29.29,0,0,1,.1,0,4.73,4.73,0,0,1,.66-.25l.38-.11a1.13,1.13,0,0,1,.37-.1,1,1,0,0,1,.25-.07,5.47,5.47,0,0,1,.61-.13,5.77,5.77,0,0,1,.83-.15Q784.83,387.46,782.88,382.23Zm4.17,166.08c-.3,0-.6-.07-.88-.12h-.1a3.89,3.89,0,0,1-.47-.09,4.31,4.31,0,0,1-.49-.11,2.42,2.42,0,0,1-.45-.1l-.45-.14c-1.09,3.52-2.27,7-3.52,10.47a16.31,16.31,0,0,0,3.24.78q1.89-5.25,3.57-10.63Zm-487.31,9.26h0q-1.86-5.24-3.5-10.56c-.25.14-.5.25-.76.37a11.32,11.32,0,0,1-1.35.48l-.18,0-.84.2c1.09,3.55,2.25,7.07,3.5,10.53l1.14,3.14a19.55,19.55,0,0,0,3.12-1.1C300.47,559.66,300.09,558.61,299.74,557.57ZM464.11,227.69a8.11,8.11,0,0,1-.41-.84l-.14-.3-.2-.58a7.49,7.49,0,0,1-.23-.81q-5.29,1.67-10.5,3.55a17,17,0,0,0,1.21,3.08c3.5-1.26,7-2.45,10.59-3.57A3.92,3.92,0,0,1,464.11,227.69ZM618,225.29c-.05.21-.12.45-.19.66a5,5,0,0,1-.21.58,4.43,4.43,0,0,1-.3.67,3.78,3.78,0,0,1-.25.49,3.54,3.54,0,0,1-.4.65q5.35,1.69,10.6,3.58a16.17,16.17,0,0,0,1.23-3.06Q623.24,227,618,225.29Zm13.53,485.27-3.1,1.17q-5.19,1.92-10.48,3.6c.06.27.13.53.2.82s.08.39.11.59a.85.85,0,0,1,0,.22c0,.22.06.41.08.63s.08.7.1,1.06c3.6-1.14,7.15-2.37,10.67-3.66,1.06-.39,2.12-.78,3.18-1.2A19.31,19.31,0,0,0,631.48,710.56Zm151.4-328.33a17.91,17.91,0,0,0-3.17.94q1.92,5.18,3.64,10.45a.29.29,0,0,1,.1,0,4.73,4.73,0,0,1,.66-.25l.38-.11a1.13,1.13,0,0,1,.37-.1,1,1,0,0,1,.25-.07,5.47,5.47,0,0,1,.61-.13,5.77,5.77,0,0,1,.83-.15Q784.83,387.46,782.88,382.23ZM299.74,557.57h0q-1.86-5.24-3.5-10.56c-.25.14-.5.25-.76.37a11.32,11.32,0,0,1-1.35.48l-.18,0-.84.2c1.09,3.55,2.25,7.07,3.5,10.53l1.14,3.14a19.55,19.55,0,0,0,3.12-1.1C300.47,559.66,300.09,558.61,299.74,557.57ZM464.11,227.69a8.11,8.11,0,0,1-.41-.84l-.14-.3-.2-.58a7.49,7.49,0,0,1-.23-.81q-5.29,1.67-10.5,3.55a17,17,0,0,0,1.21,3.08c3.5-1.26,7-2.45,10.59-3.57A3.92,3.92,0,0,1,464.11,227.69ZM618,225.29c-.05.21-.12.45-.19.66a5,5,0,0,1-.21.58,4.43,4.43,0,0,1-.3.67,3.78,3.78,0,0,1-.25.49,3.54,3.54,0,0,1-.4.65q5.35,1.69,10.6,3.58a16.17,16.17,0,0,0,1.23-3.06Q623.24,227,618,225.29Zm13.53,485.27-3.1,1.17q-5.19,1.92-10.48,3.6c.06.27.13.53.2.82s.08.39.11.59a.85.85,0,0,1,0,.22c0,.22.06.41.08.63s.08.7.1,1.06c3.6-1.14,7.15-2.37,10.67-3.66,1.06-.39,2.12-.78,3.18-1.2A19.31,19.31,0,0,0,631.48,710.56Zm151.4-328.33c-.38-1.06-.78-2.11-1.19-3.15a20.89,20.89,0,0,0-3.17,1c.4,1,.8,2.08,1.19,3.12q1.92,5.18,3.64,10.45a.29.29,0,0,1,.1,0,4.73,4.73,0,0,1,.66-.25l.38-.11a1.13,1.13,0,0,1,.37-.1,1,1,0,0,1,.25-.07,5.47,5.47,0,0,1,.61-.13,5.77,5.77,0,0,1,.83-.15Q784.83,387.46,782.88,382.23ZM299.74,557.57h0q-1.86-5.24-3.5-10.56c-.25.14-.5.25-.76.37a11.32,11.32,0,0,1-1.35.48l-.18,0-.84.2c1.09,3.55,2.25,7.07,3.5,10.53l1.14,3.14a19.55,19.55,0,0,0,3.12-1.1C300.47,559.66,300.09,558.61,299.74,557.57ZM464.11,227.69a8.11,8.11,0,0,1-.41-.84l-.14-.3-.2-.58a7.49,7.49,0,0,1-.23-.81q-5.29,1.67-10.5,3.55a17,17,0,0,0,1.21,3.08c3.5-1.26,7-2.45,10.59-3.57A3.92,3.92,0,0,1,464.11,227.69ZM618,225.29c-.05.21-.12.45-.19.66a5,5,0,0,1-.21.58,4.43,4.43,0,0,1-.3.67,3.78,3.78,0,0,1-.25.49,3.54,3.54,0,0,1-.4.65q5.35,1.69,10.6,3.58a16.17,16.17,0,0,0,1.23-3.06Q623.24,227,618,225.29Zm13.53,485.27-3.1,1.17q-5.19,1.92-10.48,3.6c.06.27.13.53.2.82s.08.39.11.59a.85.85,0,0,1,0,.22c0,.22.06.41.08.63s.08.7.1,1.06c3.6-1.14,7.15-2.37,10.67-3.66,1.06-.39,2.12-.78,3.18-1.2A19.31,19.31,0,0,0,631.48,710.56Zm151.4-328.33c-.38-1.06-.78-2.11-1.19-3.15a20.89,20.89,0,0,0-3.17,1c.4,1,.8,2.08,1.19,3.12q1.92,5.18,3.64,10.45a.29.29,0,0,1,.1,0,4.73,4.73,0,0,1,.66-.25l.38-.11a1.13,1.13,0,0,1,.37-.1,1,1,0,0,1,.25-.07,5.47,5.47,0,0,1,.61-.13,5.77,5.77,0,0,1,.83-.15Q784.83,387.46,782.88,382.23ZM299.74,557.57h0q-1.86-5.24-3.5-10.56c-.25.14-.5.25-.76.37a11.32,11.32,0,0,1-1.35.48l-.18,0-.84.2c1.09,3.55,2.25,7.07,3.5,10.53l1.14,3.14a19.55,19.55,0,0,0,3.12-1.1C300.47,559.66,300.09,558.61,299.74,557.57ZM464.11,227.69a8.11,8.11,0,0,1-.41-.84l-.14-.3-.2-.58a7.49,7.49,0,0,1-.23-.81q-5.29,1.67-10.5,3.55c-1,.36-2.07.74-3.1,1.16a17,17,0,0,0,1.18,3.07c1-.39,2.09-.78,3.13-1.15,3.5-1.26,7-2.45,10.59-3.57A3.92,3.92,0,0,1,464.11,227.69ZM631.48,710.56l-3.1,1.17q-5.19,1.92-10.48,3.6c.06.27.13.53.2.82s.08.39.11.59a.85.85,0,0,1,0,.22c0,.22.06.41.08.63s.08.7.1,1.06c3.6-1.14,7.15-2.37,10.67-3.66,1.06-.39,2.12-.78,3.18-1.2A19.31,19.31,0,0,0,631.48,710.56Zm151.4-328.33c-.38-1.06-.78-2.11-1.19-3.15a20.89,20.89,0,0,0-3.17,1c.4,1,.8,2.08,1.19,3.12q1.92,5.18,3.64,10.45a.29.29,0,0,1,.1,0,4.73,4.73,0,0,1,.66-.25l.38-.11a1.13,1.13,0,0,1,.37-.1,1,1,0,0,1,.25-.07,5.47,5.47,0,0,1,.61-.13,5.77,5.77,0,0,1,.83-.15Q784.83,387.46,782.88,382.23Z"/><path d="M635.11,510.4l5.09,1-17.8,57.19h-163v-5.72h7.94q13.35,0,19.06-8.58,3.18-5.07,3.18-23.19V383.76q0-19.69-4.13-24.78-6-6.68-18.11-6.67h-7.94v-5.72h95.32v5.72q-27-.31-32.73,11.44-2.55,4.75-2.54,23.51V531.05q0,19.38,8.26,22.56,3.81,1.59,24.15,1.58h15.25q30.5,0,43.69-8.73T635.11,510.4Z"/><path d="M540.32,717.44c-135.31,0-245.4-110.09-245.4-245.4S405,226.64,540.32,226.64,785.72,336.72,785.72,472,675.64,717.44,540.32,717.44Zm0-487.49C406.84,230,298.24,338.55,298.24,472s108.6,242.08,242.08,242.08S782.41,605.52,782.41,472,673.81,230,540.32,230Z"/></svg>